# xmcd
#
# Track frame offsets:
#	150
#	15020
#	30270
#	43407
#	59927
#	76702
#	89555
#	106607
#	124477
#	139272
#	154515
#	167617
#	184112
#	200802
#	213637
#	230702
#
# Disc length: 3314 seconds
#
# Revision: 1
# Processed by: cddbd v1.5.1PL2 Copyright (c) Steve Scherf et al.
# Submitted via: audiograbber 1.83.01
#
DISCID=db0cf010
DTITLE=Tucker, Tanya - Sc2088
DYEAR=1900
DGENRE=Country
TTITLE0=If Your Heart Ain't Busy Tonight
TTITLE1=Between The Two Of Them
TTITLE2=Walking Shoes
TTITLE3=Hangin' In
TTITLE4=Soon
TTITLE5=It's A Little Too Late
TTITLE6=Find Out What's Happenin'
TTITLE7=My Arms Stay Open All Night
TTITLE8=If Your Heart Ain't Busy Tonight (Vocals)
TTITLE9=Between The Two Of Them (Vocals)
TTITLE10=Walking Shoes (Vocals)
TTITLE11=Hangin' In (Vocals)
TTITLE12=Soon (Vocals)
TTITLE13=It's A Little Too Late (Vocals)
TTITLE14=Find Out What's Happenin' (Vocals)
TTITLE15=My Arms Stay Open All Night (Vocals)
EXTD=
EXTT0=
EXTT1=
EXTT2=
EXTT3=
EXTT4=
EXTT5=
EXTT6=
EXTT7=
EXTT8=
EXTT9=
EXTT10=
EXTT11=
EXTT12=
EXTT13=
EXTT14=
EXTT15=
PLAYORDER=
